<svg aria-hidden="true" style="position:absolute;width:0;height:0;overflow:hidden" xmlns="http://www.w3.org/2000/svg"><defs>
<symbol id="icon-close" viewBox="0 0 32 32"><path stroke-width="2.133" style="stroke:var(--color1, #2094f3e6)" d="m8.533 8.533 14.933 14.933m-14.933.001L23.466 8.534"/></symbol>
<symbol id="icon-github" viewBox="0 0 28 32"><path d="M25 2H3C1.344 2 0 3.344 0 5v22c0 1.656 1.344 3 3 3h22c1.656 0 3-1.344 3-3V5c0-1.656-1.344-3-3-3zm-7.669 23.981c-.525.094-.719-.231-.719-.5 0-.337.012-2.063.012-3.456 0-.975-.325-1.594-.706-1.919 2.313-.256 4.75-.575 4.75-4.569 0-1.137-.406-1.706-1.069-2.438.106-.269.462-1.375-.106-2.813-.869-.269-2.856 1.119-2.856 1.119-.825-.231-1.719-.35-2.6-.35s-1.775.119-2.6.35c0 0-1.988-1.387-2.856-1.119-.569 1.431-.219 2.537-.106 2.813-.662.731-.975 1.3-.975 2.438 0 3.975 2.331 4.313 4.644 4.569-.3.269-.569.731-.662 1.394-.594.269-2.112.731-3.019-.869-.569-.988-1.594-1.069-1.594-1.069-1.013-.012-.069.637-.069.637.675.313 1.15 1.512 1.15 1.512.606 1.856 3.506 1.231 3.506 1.231 0 .869.012 2.281.012 2.538 0 .269-.188.594-.719.5-4.125-1.381-7.013-5.306-7.013-9.894 0-5.738 4.388-10.094 10.125-10.094s10.387 4.356 10.387 10.094c.006 4.587-2.794 8.519-6.919 9.894zM11.2 22.163c-.119.025-.231-.025-.244-.106-.012-.094.069-.175.188-.2.119-.012.231.038.244.119.019.081-.063.163-.188.188zm-.594-.057c0 .081-.094.15-.219.15-.137.012-.231-.056-.231-.15 0-.081.094-.15.219-.15.119-.012.231.056.231.15zm-.856-.068c-.025.081-.15.119-.256.081-.119-.025-.2-.119-.175-.2s.15-.119.256-.094c.125.038.206.131.175.212zm-.769-.338c-.056.069-.175.056-.269-.038-.094-.081-.119-.2-.056-.256.056-.069.175-.056.269.038.081.081.113.206.056.256zm-.569-.569c-.056.038-.162 0-.231-.094s-.069-.2 0-.244c.069-.056.175-.012.231.081.069.094.069.206 0 .256zm-.406-.606c-.056.056-.15.025-.219-.038-.069-.081-.081-.175-.025-.219.056-.056.15-.025.219.038.069.081.081.175.025.219zm-.418-.462c-.025.056-.106.069-.175.025-.081-.038-.119-.106-.094-.163.025-.038.094-.056.175-.025.081.044.119.113.094.163z"/></symbol>
<symbol id="icon-linkedin" viewBox="0 0 28 32"><path d="M26 2H1.994C.894 2 0 2.906 0 4.019v23.962C0 29.094.894 30 1.994 30H26c1.1 0 2-.906 2-2.019V4.019C28 2.907 27.1 2 26 2zM8.463 26h-4.15V12.637h4.156V26zM6.388 10.813a2.407 2.407 0 0 1 0-4.812 2.41 2.41 0 0 1 2.406 2.406 2.403 2.403 0 0 1-2.406 2.406zM24.019 26h-4.15v-6.5c0-1.55-.031-3.544-2.156-3.544-2.162 0-2.494 1.688-2.494 3.431V26h-4.15V12.637h3.981v1.825h.056c.556-1.05 1.912-2.156 3.931-2.156 4.2 0 4.981 2.769 4.981 6.369V26z"/></symbol>
</path></defs></svg>